<mxfile host="app.diagrams.net" agent="Mozilla/5.0 (Macintosh; Intel Mac OS X 10_15_7) AppleWebKit/537.36 (KHTML, like Gecko) Chrome/128.0.0.0 Safari/537.36" version="24.8.4">
  <diagram name="Page-1" id="m1NpI7TjjSzxyWWmxVFN">
    <mxGraphModel dx="1562" dy="745" grid="1" gridSize="10" guides="1" tooltips="1" connect="1" arrows="1" fold="1" page="1" pageScale="1" pageWidth="850" pageHeight="1100" math="0" shadow="0">
      <root>
        <mxCell id="0" />
        <mxCell id="1" parent="0" />
        <mxCell id="rdQjn8Gyy4NNGXEL9tR6-1" value="" style="ellipse;whiteSpace=wrap;html=1;aspect=fixed;fillColor=#CCCCCC;strokeColor=#FFFFFF;strokeWidth=3;" vertex="1" parent="1">
          <mxGeometry x="20" y="240" width="20" height="20" as="geometry" />
        </mxCell>
        <mxCell id="rdQjn8Gyy4NNGXEL9tR6-2" value="" style="ellipse;whiteSpace=wrap;html=1;aspect=fixed;fillColor=#CCCCCC;strokeColor=#FFFFFF;strokeWidth=3;" vertex="1" parent="1">
          <mxGeometry x="50" y="240" width="20" height="20" as="geometry" />
        </mxCell>
        <mxCell id="rdQjn8Gyy4NNGXEL9tR6-6" value="" style="ellipse;whiteSpace=wrap;html=1;aspect=fixed;fillColor=#CCCCCC;strokeColor=#FFFFFF;strokeWidth=3;" vertex="1" parent="1">
          <mxGeometry x="80" y="240" width="20" height="20" as="geometry" />
        </mxCell>
        <mxCell id="rdQjn8Gyy4NNGXEL9tR6-7" value="" style="ellipse;whiteSpace=wrap;html=1;aspect=fixed;fillColor=#CCCCCC;strokeColor=#FFFFFF;strokeWidth=3;" vertex="1" parent="1">
          <mxGeometry x="110" y="240" width="20" height="20" as="geometry" />
        </mxCell>
        <mxCell id="rdQjn8Gyy4NNGXEL9tR6-8" value="" style="ellipse;whiteSpace=wrap;html=1;aspect=fixed;fillColor=#CCCCCC;strokeColor=#FFFFFF;strokeWidth=3;" vertex="1" parent="1">
          <mxGeometry x="20" y="270" width="20" height="20" as="geometry" />
        </mxCell>
        <mxCell id="rdQjn8Gyy4NNGXEL9tR6-10" value="" style="ellipse;whiteSpace=wrap;html=1;aspect=fixed;fillColor=#CCCCCC;strokeColor=#FFFFFF;strokeWidth=3;" vertex="1" parent="1">
          <mxGeometry x="80" y="270" width="20" height="20" as="geometry" />
        </mxCell>
        <mxCell id="rdQjn8Gyy4NNGXEL9tR6-11" value="" style="ellipse;whiteSpace=wrap;html=1;aspect=fixed;fillColor=#CCCCCC;strokeColor=#FFFFFF;strokeWidth=3;" vertex="1" parent="1">
          <mxGeometry x="110" y="270" width="20" height="20" as="geometry" />
        </mxCell>
        <mxCell id="rdQjn8Gyy4NNGXEL9tR6-12" value="" style="ellipse;whiteSpace=wrap;html=1;aspect=fixed;fillColor=#CCCCCC;strokeColor=#FFFFFF;strokeWidth=3;" vertex="1" parent="1">
          <mxGeometry x="20" y="300" width="20" height="20" as="geometry" />
        </mxCell>
        <mxCell id="rdQjn8Gyy4NNGXEL9tR6-13" value="" style="ellipse;whiteSpace=wrap;html=1;aspect=fixed;fillColor=#CCCCCC;strokeColor=#FFFFFF;strokeWidth=3;" vertex="1" parent="1">
          <mxGeometry x="50" y="300" width="20" height="20" as="geometry" />
        </mxCell>
        <mxCell id="rdQjn8Gyy4NNGXEL9tR6-14" value="" style="ellipse;whiteSpace=wrap;html=1;aspect=fixed;fillColor=#CCCCCC;strokeColor=#FFFFFF;strokeWidth=3;" vertex="1" parent="1">
          <mxGeometry x="80" y="300" width="20" height="20" as="geometry" />
        </mxCell>
        <mxCell id="rdQjn8Gyy4NNGXEL9tR6-15" value="" style="ellipse;whiteSpace=wrap;html=1;aspect=fixed;fillColor=#CCCCCC;strokeColor=#FFFFFF;strokeWidth=3;" vertex="1" parent="1">
          <mxGeometry x="110" y="300" width="20" height="20" as="geometry" />
        </mxCell>
        <mxCell id="rdQjn8Gyy4NNGXEL9tR6-16" value="" style="ellipse;whiteSpace=wrap;html=1;aspect=fixed;fillColor=#CCCCCC;strokeColor=#FFFFFF;strokeWidth=3;" vertex="1" parent="1">
          <mxGeometry x="20" y="330" width="20" height="20" as="geometry" />
        </mxCell>
        <mxCell id="rdQjn8Gyy4NNGXEL9tR6-17" value="" style="ellipse;whiteSpace=wrap;html=1;aspect=fixed;fillColor=#CCCCCC;strokeColor=#FFFFFF;strokeWidth=3;" vertex="1" parent="1">
          <mxGeometry x="50" y="330" width="20" height="20" as="geometry" />
        </mxCell>
        <mxCell id="rdQjn8Gyy4NNGXEL9tR6-18" value="" style="ellipse;whiteSpace=wrap;html=1;aspect=fixed;fillColor=#CCCCCC;strokeColor=#FFFFFF;strokeWidth=3;" vertex="1" parent="1">
          <mxGeometry x="80" y="330" width="20" height="20" as="geometry" />
        </mxCell>
        <mxCell id="rdQjn8Gyy4NNGXEL9tR6-19" value="" style="ellipse;whiteSpace=wrap;html=1;aspect=fixed;fillColor=#CCCCCC;strokeColor=#FFFFFF;strokeWidth=3;" vertex="1" parent="1">
          <mxGeometry x="110" y="330" width="20" height="20" as="geometry" />
        </mxCell>
        <mxCell id="rdQjn8Gyy4NNGXEL9tR6-20" value="" style="ellipse;whiteSpace=wrap;html=1;aspect=fixed;fillColor=#CCCCCC;strokeColor=#FFFFFF;strokeWidth=3;" vertex="1" parent="1">
          <mxGeometry x="180" y="240" width="20" height="20" as="geometry" />
        </mxCell>
        <mxCell id="rdQjn8Gyy4NNGXEL9tR6-21" value="" style="ellipse;whiteSpace=wrap;html=1;aspect=fixed;fillColor=#CCCCCC;strokeColor=#FFFFFF;strokeWidth=3;" vertex="1" parent="1">
          <mxGeometry x="210" y="240" width="20" height="20" as="geometry" />
        </mxCell>
        <mxCell id="rdQjn8Gyy4NNGXEL9tR6-22" value="" style="ellipse;whiteSpace=wrap;html=1;aspect=fixed;fillColor=#CCCCCC;strokeColor=#FFFFFF;strokeWidth=3;" vertex="1" parent="1">
          <mxGeometry x="240" y="240" width="20" height="20" as="geometry" />
        </mxCell>
        <mxCell id="rdQjn8Gyy4NNGXEL9tR6-23" value="" style="ellipse;whiteSpace=wrap;html=1;aspect=fixed;fillColor=#CCCCCC;strokeColor=#FFFFFF;strokeWidth=3;" vertex="1" parent="1">
          <mxGeometry x="270" y="240" width="20" height="20" as="geometry" />
        </mxCell>
        <mxCell id="rdQjn8Gyy4NNGXEL9tR6-24" value="" style="ellipse;whiteSpace=wrap;html=1;aspect=fixed;fillColor=#CCCCCC;strokeColor=#FFFFFF;strokeWidth=3;" vertex="1" parent="1">
          <mxGeometry x="180" y="270" width="20" height="20" as="geometry" />
        </mxCell>
        <mxCell id="rdQjn8Gyy4NNGXEL9tR6-25" value="" style="ellipse;whiteSpace=wrap;html=1;aspect=fixed;fillColor=#CCCCCC;strokeColor=#FFFFFF;strokeWidth=3;" vertex="1" parent="1">
          <mxGeometry x="210" y="270" width="20" height="20" as="geometry" />
        </mxCell>
        <mxCell id="rdQjn8Gyy4NNGXEL9tR6-26" value="" style="ellipse;whiteSpace=wrap;html=1;aspect=fixed;fillColor=#CCCCCC;strokeColor=#FFFFFF;strokeWidth=3;" vertex="1" parent="1">
          <mxGeometry x="240" y="270" width="20" height="20" as="geometry" />
        </mxCell>
        <mxCell id="rdQjn8Gyy4NNGXEL9tR6-27" value="" style="ellipse;whiteSpace=wrap;html=1;aspect=fixed;fillColor=#CCCCCC;strokeColor=#FFFFFF;strokeWidth=3;" vertex="1" parent="1">
          <mxGeometry x="270" y="270" width="20" height="20" as="geometry" />
        </mxCell>
        <mxCell id="rdQjn8Gyy4NNGXEL9tR6-28" value="" style="ellipse;whiteSpace=wrap;html=1;aspect=fixed;fillColor=#CCCCCC;strokeColor=#FFFFFF;strokeWidth=3;" vertex="1" parent="1">
          <mxGeometry x="180" y="300" width="20" height="20" as="geometry" />
        </mxCell>
        <mxCell id="rdQjn8Gyy4NNGXEL9tR6-29" value="" style="ellipse;whiteSpace=wrap;html=1;aspect=fixed;fillColor=#CCCCCC;strokeColor=#FFFFFF;strokeWidth=3;" vertex="1" parent="1">
          <mxGeometry x="210" y="300" width="20" height="20" as="geometry" />
        </mxCell>
        <mxCell id="rdQjn8Gyy4NNGXEL9tR6-30" value="" style="ellipse;whiteSpace=wrap;html=1;aspect=fixed;fillColor=#CCCCCC;strokeColor=#FFFFFF;strokeWidth=3;" vertex="1" parent="1">
          <mxGeometry x="240" y="300" width="20" height="20" as="geometry" />
        </mxCell>
        <mxCell id="rdQjn8Gyy4NNGXEL9tR6-31" value="" style="ellipse;whiteSpace=wrap;html=1;aspect=fixed;fillColor=#CCCCCC;strokeColor=#FFFFFF;strokeWidth=3;" vertex="1" parent="1">
          <mxGeometry x="270" y="300" width="20" height="20" as="geometry" />
        </mxCell>
        <mxCell id="rdQjn8Gyy4NNGXEL9tR6-32" value="" style="ellipse;whiteSpace=wrap;html=1;aspect=fixed;fillColor=#CCCCCC;strokeColor=#FFFFFF;strokeWidth=3;" vertex="1" parent="1">
          <mxGeometry x="180" y="330" width="20" height="20" as="geometry" />
        </mxCell>
        <mxCell id="rdQjn8Gyy4NNGXEL9tR6-33" value="" style="ellipse;whiteSpace=wrap;html=1;aspect=fixed;fillColor=#CCCCCC;strokeColor=#FFFFFF;strokeWidth=3;" vertex="1" parent="1">
          <mxGeometry x="210" y="330" width="20" height="20" as="geometry" />
        </mxCell>
        <mxCell id="rdQjn8Gyy4NNGXEL9tR6-34" value="" style="ellipse;whiteSpace=wrap;html=1;aspect=fixed;fillColor=#CCCCCC;strokeColor=#FFFFFF;strokeWidth=3;" vertex="1" parent="1">
          <mxGeometry x="240" y="330" width="20" height="20" as="geometry" />
        </mxCell>
        <mxCell id="rdQjn8Gyy4NNGXEL9tR6-35" value="" style="ellipse;whiteSpace=wrap;html=1;aspect=fixed;fillColor=#CCCCCC;strokeColor=#FFFFFF;strokeWidth=3;" vertex="1" parent="1">
          <mxGeometry x="270" y="330" width="20" height="20" as="geometry" />
        </mxCell>
        <mxCell id="rdQjn8Gyy4NNGXEL9tR6-36" value="" style="ellipse;whiteSpace=wrap;html=1;aspect=fixed;fillColor=#CCCCCC;strokeColor=#FFFFFF;strokeWidth=3;" vertex="1" parent="1">
          <mxGeometry x="340" y="240" width="20" height="20" as="geometry" />
        </mxCell>
        <mxCell id="rdQjn8Gyy4NNGXEL9tR6-37" value="" style="ellipse;whiteSpace=wrap;html=1;aspect=fixed;fillColor=#CCCCCC;strokeColor=#FFFFFF;strokeWidth=3;" vertex="1" parent="1">
          <mxGeometry x="370" y="240" width="20" height="20" as="geometry" />
        </mxCell>
        <mxCell id="rdQjn8Gyy4NNGXEL9tR6-38" value="" style="ellipse;whiteSpace=wrap;html=1;aspect=fixed;fillColor=#CCCCCC;strokeColor=#FFFFFF;strokeWidth=3;" vertex="1" parent="1">
          <mxGeometry x="400" y="240" width="20" height="20" as="geometry" />
        </mxCell>
        <mxCell id="rdQjn8Gyy4NNGXEL9tR6-39" value="" style="ellipse;whiteSpace=wrap;html=1;aspect=fixed;fillColor=#CCCCCC;strokeColor=#FFFFFF;strokeWidth=3;" vertex="1" parent="1">
          <mxGeometry x="430" y="240" width="20" height="20" as="geometry" />
        </mxCell>
        <mxCell id="rdQjn8Gyy4NNGXEL9tR6-40" value="" style="ellipse;whiteSpace=wrap;html=1;aspect=fixed;fillColor=#CCCCCC;strokeColor=#FFFFFF;strokeWidth=3;" vertex="1" parent="1">
          <mxGeometry x="340" y="270" width="20" height="20" as="geometry" />
        </mxCell>
        <mxCell id="rdQjn8Gyy4NNGXEL9tR6-41" value="" style="ellipse;whiteSpace=wrap;html=1;aspect=fixed;fillColor=#CCCCCC;strokeColor=#FFFFFF;strokeWidth=3;" vertex="1" parent="1">
          <mxGeometry x="370" y="270" width="20" height="20" as="geometry" />
        </mxCell>
        <mxCell id="rdQjn8Gyy4NNGXEL9tR6-42" value="" style="ellipse;whiteSpace=wrap;html=1;aspect=fixed;fillColor=#CCCCCC;strokeColor=#FFFFFF;strokeWidth=3;" vertex="1" parent="1">
          <mxGeometry x="400" y="270" width="20" height="20" as="geometry" />
        </mxCell>
        <mxCell id="rdQjn8Gyy4NNGXEL9tR6-43" value="" style="ellipse;whiteSpace=wrap;html=1;aspect=fixed;fillColor=#CCCCCC;strokeColor=#FFFFFF;strokeWidth=3;" vertex="1" parent="1">
          <mxGeometry x="430" y="270" width="20" height="20" as="geometry" />
        </mxCell>
        <mxCell id="rdQjn8Gyy4NNGXEL9tR6-44" value="" style="ellipse;whiteSpace=wrap;html=1;aspect=fixed;fillColor=#CCCCCC;strokeColor=#FFFFFF;strokeWidth=3;" vertex="1" parent="1">
          <mxGeometry x="340" y="300" width="20" height="20" as="geometry" />
        </mxCell>
        <mxCell id="rdQjn8Gyy4NNGXEL9tR6-45" value="" style="ellipse;whiteSpace=wrap;html=1;aspect=fixed;fillColor=#FF6666;strokeColor=#FFFFFF;strokeWidth=3;" vertex="1" parent="1">
          <mxGeometry x="370" y="300" width="20" height="20" as="geometry" />
        </mxCell>
        <mxCell id="rdQjn8Gyy4NNGXEL9tR6-46" value="" style="ellipse;whiteSpace=wrap;html=1;aspect=fixed;fillColor=#CCCCCC;strokeColor=#FFFFFF;strokeWidth=3;" vertex="1" parent="1">
          <mxGeometry x="400" y="300" width="20" height="20" as="geometry" />
        </mxCell>
        <mxCell id="rdQjn8Gyy4NNGXEL9tR6-47" value="" style="ellipse;whiteSpace=wrap;html=1;aspect=fixed;fillColor=#CCCCCC;strokeColor=#FFFFFF;strokeWidth=3;" vertex="1" parent="1">
          <mxGeometry x="430" y="300" width="20" height="20" as="geometry" />
        </mxCell>
        <mxCell id="rdQjn8Gyy4NNGXEL9tR6-48" value="" style="ellipse;whiteSpace=wrap;html=1;aspect=fixed;fillColor=#CCCCCC;strokeColor=#FFFFFF;strokeWidth=3;" vertex="1" parent="1">
          <mxGeometry x="340" y="330" width="20" height="20" as="geometry" />
        </mxCell>
        <mxCell id="rdQjn8Gyy4NNGXEL9tR6-49" value="" style="ellipse;whiteSpace=wrap;html=1;aspect=fixed;fillColor=#CCCCCC;strokeColor=#FFFFFF;strokeWidth=3;" vertex="1" parent="1">
          <mxGeometry x="370" y="330" width="20" height="20" as="geometry" />
        </mxCell>
        <mxCell id="rdQjn8Gyy4NNGXEL9tR6-50" value="" style="ellipse;whiteSpace=wrap;html=1;aspect=fixed;fillColor=#CCCCCC;strokeColor=#FFFFFF;strokeWidth=3;" vertex="1" parent="1">
          <mxGeometry x="400" y="330" width="20" height="20" as="geometry" />
        </mxCell>
        <mxCell id="rdQjn8Gyy4NNGXEL9tR6-51" value="" style="ellipse;whiteSpace=wrap;html=1;aspect=fixed;fillColor=#CCCCCC;strokeColor=#FFFFFF;strokeWidth=3;" vertex="1" parent="1">
          <mxGeometry x="430" y="330" width="20" height="20" as="geometry" />
        </mxCell>
        <mxCell id="rdQjn8Gyy4NNGXEL9tR6-52" value="" style="ellipse;whiteSpace=wrap;html=1;aspect=fixed;fillColor=#CCCCCC;strokeColor=#FFFFFF;strokeWidth=3;" vertex="1" parent="1">
          <mxGeometry x="500" y="240" width="20" height="20" as="geometry" />
        </mxCell>
        <mxCell id="rdQjn8Gyy4NNGXEL9tR6-53" value="" style="ellipse;whiteSpace=wrap;html=1;aspect=fixed;fillColor=#CCCCCC;strokeColor=#FFFFFF;strokeWidth=3;" vertex="1" parent="1">
          <mxGeometry x="530" y="240" width="20" height="20" as="geometry" />
        </mxCell>
        <mxCell id="rdQjn8Gyy4NNGXEL9tR6-54" value="" style="ellipse;whiteSpace=wrap;html=1;aspect=fixed;fillColor=#CCCCCC;strokeColor=#FFFFFF;strokeWidth=3;" vertex="1" parent="1">
          <mxGeometry x="560" y="240" width="20" height="20" as="geometry" />
        </mxCell>
        <mxCell id="rdQjn8Gyy4NNGXEL9tR6-55" value="" style="ellipse;whiteSpace=wrap;html=1;aspect=fixed;fillColor=#CCCCCC;strokeColor=#FFFFFF;strokeWidth=3;" vertex="1" parent="1">
          <mxGeometry x="590" y="240" width="20" height="20" as="geometry" />
        </mxCell>
        <mxCell id="rdQjn8Gyy4NNGXEL9tR6-56" value="" style="ellipse;whiteSpace=wrap;html=1;aspect=fixed;fillColor=#CCCCCC;strokeColor=#FFFFFF;strokeWidth=3;" vertex="1" parent="1">
          <mxGeometry x="500" y="270" width="20" height="20" as="geometry" />
        </mxCell>
        <mxCell id="rdQjn8Gyy4NNGXEL9tR6-57" value="" style="ellipse;whiteSpace=wrap;html=1;aspect=fixed;fillColor=#CCCCCC;strokeColor=#FFFFFF;strokeWidth=3;" vertex="1" parent="1">
          <mxGeometry x="530" y="270" width="20" height="20" as="geometry" />
        </mxCell>
        <mxCell id="rdQjn8Gyy4NNGXEL9tR6-58" value="" style="ellipse;whiteSpace=wrap;html=1;aspect=fixed;fillColor=#CCCCCC;strokeColor=#FFFFFF;strokeWidth=3;" vertex="1" parent="1">
          <mxGeometry x="560" y="270" width="20" height="20" as="geometry" />
        </mxCell>
        <mxCell id="rdQjn8Gyy4NNGXEL9tR6-59" value="" style="ellipse;whiteSpace=wrap;html=1;aspect=fixed;fillColor=#CCCCCC;strokeColor=#FFFFFF;strokeWidth=3;" vertex="1" parent="1">
          <mxGeometry x="590" y="270" width="20" height="20" as="geometry" />
        </mxCell>
        <mxCell id="rdQjn8Gyy4NNGXEL9tR6-60" value="" style="ellipse;whiteSpace=wrap;html=1;aspect=fixed;fillColor=#CCCCCC;strokeColor=#FFFFFF;strokeWidth=3;" vertex="1" parent="1">
          <mxGeometry x="500" y="300" width="20" height="20" as="geometry" />
        </mxCell>
        <mxCell id="rdQjn8Gyy4NNGXEL9tR6-61" value="" style="ellipse;whiteSpace=wrap;html=1;aspect=fixed;fillColor=#CCCCCC;strokeColor=#FFFFFF;strokeWidth=3;" vertex="1" parent="1">
          <mxGeometry x="530" y="300" width="20" height="20" as="geometry" />
        </mxCell>
        <mxCell id="rdQjn8Gyy4NNGXEL9tR6-62" value="" style="ellipse;whiteSpace=wrap;html=1;aspect=fixed;fillColor=#CCCCCC;strokeColor=#FFFFFF;strokeWidth=3;" vertex="1" parent="1">
          <mxGeometry x="560" y="300" width="20" height="20" as="geometry" />
        </mxCell>
        <mxCell id="rdQjn8Gyy4NNGXEL9tR6-63" value="" style="ellipse;whiteSpace=wrap;html=1;aspect=fixed;fillColor=#CCCCCC;strokeColor=#FFFFFF;strokeWidth=3;" vertex="1" parent="1">
          <mxGeometry x="590" y="300" width="20" height="20" as="geometry" />
        </mxCell>
        <mxCell id="rdQjn8Gyy4NNGXEL9tR6-64" value="" style="ellipse;whiteSpace=wrap;html=1;aspect=fixed;fillColor=#CCCCCC;strokeColor=#FFFFFF;strokeWidth=3;" vertex="1" parent="1">
          <mxGeometry x="500" y="330" width="20" height="20" as="geometry" />
        </mxCell>
        <mxCell id="rdQjn8Gyy4NNGXEL9tR6-65" value="" style="ellipse;whiteSpace=wrap;html=1;aspect=fixed;fillColor=#CCCCCC;strokeColor=#FFFFFF;strokeWidth=3;" vertex="1" parent="1">
          <mxGeometry x="530" y="330" width="20" height="20" as="geometry" />
        </mxCell>
        <mxCell id="rdQjn8Gyy4NNGXEL9tR6-66" value="" style="ellipse;whiteSpace=wrap;html=1;aspect=fixed;fillColor=#CCCCCC;strokeColor=#FFFFFF;strokeWidth=3;" vertex="1" parent="1">
          <mxGeometry x="560" y="330" width="20" height="20" as="geometry" />
        </mxCell>
        <mxCell id="rdQjn8Gyy4NNGXEL9tR6-67" value="" style="ellipse;whiteSpace=wrap;html=1;aspect=fixed;fillColor=#CCCCCC;strokeColor=#FFFFFF;strokeWidth=3;" vertex="1" parent="1">
          <mxGeometry x="590" y="330" width="20" height="20" as="geometry" />
        </mxCell>
        <mxCell id="rdQjn8Gyy4NNGXEL9tR6-68" value="" style="ellipse;whiteSpace=wrap;html=1;aspect=fixed;fillColor=#CCCCCC;strokeColor=#FFFFFF;strokeWidth=3;" vertex="1" parent="1">
          <mxGeometry x="225" y="285" width="20" height="20" as="geometry" />
        </mxCell>
        <mxCell id="rdQjn8Gyy4NNGXEL9tR6-69" value="" style="ellipse;whiteSpace=wrap;html=1;aspect=fixed;fillColor=#FF6666;strokeColor=#FFFFFF;strokeWidth=3;" vertex="1" parent="1">
          <mxGeometry x="545" y="285" width="20" height="20" as="geometry" />
        </mxCell>
        <mxCell id="rdQjn8Gyy4NNGXEL9tR6-70" value="&lt;font style=&quot;font-size: 16px;&quot;&gt;&lt;b&gt;A&lt;/b&gt;&lt;/font&gt;" style="text;html=1;align=center;verticalAlign=middle;whiteSpace=wrap;rounded=0;" vertex="1" parent="1">
          <mxGeometry x="15" y="210" width="30" height="30" as="geometry" />
        </mxCell>
        <mxCell id="rdQjn8Gyy4NNGXEL9tR6-71" value="&lt;font style=&quot;font-size: 16px;&quot;&gt;&lt;b&gt;B&lt;/b&gt;&lt;/font&gt;" style="text;html=1;align=center;verticalAlign=middle;whiteSpace=wrap;rounded=0;" vertex="1" parent="1">
          <mxGeometry x="175" y="210" width="30" height="30" as="geometry" />
        </mxCell>
        <mxCell id="rdQjn8Gyy4NNGXEL9tR6-72" value="&lt;font style=&quot;font-size: 16px;&quot;&gt;&lt;b&gt;C&lt;/b&gt;&lt;/font&gt;" style="text;html=1;align=center;verticalAlign=middle;whiteSpace=wrap;rounded=0;" vertex="1" parent="1">
          <mxGeometry x="335" y="210" width="30" height="30" as="geometry" />
        </mxCell>
        <mxCell id="rdQjn8Gyy4NNGXEL9tR6-73" value="&lt;font style=&quot;font-size: 16px;&quot;&gt;&lt;b&gt;D&lt;/b&gt;&lt;/font&gt;" style="text;html=1;align=center;verticalAlign=middle;whiteSpace=wrap;rounded=0;" vertex="1" parent="1">
          <mxGeometry x="495" y="210" width="30" height="30" as="geometry" />
        </mxCell>
      </root>
    </mxGraphModel>
  </diagram>
</mxfile>
